<?xml version="1.0" standalone="no"?><!DOCTYPE svg PUBLIC "-//W3C//DTD SVG 1.1//EN" "http://www.w3.org/Graphics/SVG/1.1/DTD/svg11.dtd"><svg t="1581252920820" class="icon" viewBox="0 0 1024 1024" version="1.1" xmlns="http://www.w3.org/2000/svg" p-id="5738" xmlns:xlink="http://www.w3.org/1999/xlink" width="200" height="200"><defs><style type="text/css"></style></defs><path d="M883.4 226.3H140.6c-15.7 0-28.6 12.9-28.6 28.6v514.3c0 15.7 12.9 28.6 28.6 28.6h742.9c15.7 0 28.6-12.9 28.6-28.6V254.9c-0.1-15.8-13-28.6-28.7-28.6zM312 420.6c2.9-42.9 37.9-77.1 80.7-80 50-2.9 91.4 36.4 91.4 85.7 0 47.1-38.6 85.7-85.7 85.7-50 0.7-90-41.4-86.4-91.4z m257.1 248.5c0 7.9-6.4 14.3-14.3 14.3H240.6c-7.9 0-14.3-6.4-14.3-14.3v-42.9c0-57.1 114.3-85.7 171.4-85.7 57.1 0 171.4 28.6 171.4 85.7v42.9z m228.6-185.7H683.4v-28.6h114.3v28.6z m0-57.1H569.1v-28.6h228.6v28.6z m0-57.2H569.1v-28.6h228.6v28.6z m0 0" p-id="5739"></path></svg>