<?xml version="1.0" standalone="no"?><!DOCTYPE svg PUBLIC "-//W3C//DTD SVG 1.1//EN" "http://www.w3.org/Graphics/SVG/1.1/DTD/svg11.dtd"><svg t="1578195169258" class="icon" viewBox="0 0 1025 1024" version="1.1" xmlns="http://www.w3.org/2000/svg" p-id="1154" xmlns:xlink="http://www.w3.org/1999/xlink" width="200.1953125" height="200"><defs><style type="text/css"></style></defs><path d="M706.048 863.744c-22.016 0-50.176-4.096-84.48-15.36-82.944-27.648-175.616-89.6-275.968-184.832C176.64 502.784 151.552 350.72 151.552 349.184c-1.536-14.336-6.656-58.368 29.184-108.032 32.256-44.544 100.864-77.312 103.936-78.336 9.728-4.608 21.504-2.56 29.696 5.12 3.072 2.56 69.632 68.608 120.32 168.448 9.216 17.92-2.048 32.768-16.384 51.712-10.752 13.824-32.768 42.496-30.208 56.832 7.168 31.744 140.8 167.424 187.904 173.568 11.776 1.536 40.448-18.432 54.272-28.16 15.872-10.752 27.136-18.944 38.4-20.992 7.68-1.536 26.112-5.12 101.888 52.736 22.016 16.896 76.288 60.416 99.328 97.792 4.608 7.68 5.12 16.896 1.536 25.088-16.384 33.28-68.608 84.992-100.352 103.936-10.24 5.632-30.72 14.848-65.024 14.848z m-415.744-645.12c-20.992 11.776-51.712 32.256-67.072 53.248-24.064 33.28-20.992 60.928-19.456 71.168 0 1.536 25.088 137.216 178.176 282.624C591.36 824.32 714.24 821.76 743.936 803.84c21.504-13.312 55.808-46.08 72.192-69.632C781.824 691.712 701.44 633.344 675.84 622.08c-4.608 2.56-11.264 7.168-16.384 10.752-26.624 18.432-59.904 41.472-91.648 36.864-69.12-9.216-223.232-161.792-231.936-216.576-6.144-36.352 22.016-72.704 40.448-96.768 1.536-2.048 3.584-5.12 5.632-7.168-33.28-61.952-72.192-108.544-91.648-130.56z" fill="#2C2C2C" p-id="1155"></path></svg>